<?xml version="1.0" encoding="utf-8"?>
<!-- Generator: Adobe Illustrator 22.0.1, SVG Export Plug-In . SVG Version: 6.00 Build 0)  -->
<svg version="1.1" id="Layer_1" xmlns="http://www.w3.org/2000/svg" xmlns:xlink="http://www.w3.org/1999/xlink" x="0px" y="0px"
	 viewBox="0 0 50 45.2" style="enable-background:new 0 0 50 45.2;" xml:space="preserve">
<style type="text/css">
	.st0{fill:#FEE573;}
	.st1{fill:#E6E6E6;}
	.st2{fill:#E5E3E3;}
	.st3{fill:#999999;}
	.st4{fill:#CCCCCC;}
	.st5{fill:none;stroke:#CCCCCC;stroke-width:4;stroke-linecap:round;stroke-miterlimit:10;}
	.st6{fill:#4E60A0;}
	.st7{fill:#B3B3B3;}
	.st8{fill:#BCCECB;}
	.st9{fill:#FFFF00;}
	.st10{fill:none;}
	.st11{fill:#666666;}
	.st12{fill:#FFFFFF;}
</style>
<path class="st0" d="M46.3,26.5l-3.5-2.4c-0.7-0.5-1.6-0.3-2,0.4c-0.5,0.7-0.3,1.6,0.4,2l3.5,2.4c0.3,0.2,0.8,0.3,1.1,0.2
	c0.3-0.1,0.7-0.3,0.9-0.6C47.1,27.9,47,27,46.3,26.5z"/>
<g>
	<path class="st0" d="M29.8,9.5c-2.7,0.6-4.8,2.4-6,4.7c1,0.2,1.9,0.4,2.9,0.8c0.8-1.3,2.1-2.3,3.8-2.7c3.2-0.7,6.4,1.3,7.1,4.5
		c0.6,2.9-1,5.8-3.7,6.8c0.2,0.9,0.3,1.9,0.3,2.9c0.1,0,0.2,0,0.2,0c4.3-1.4,6.9-5.9,6-10.4C39.3,11.5,34.5,8.5,29.8,9.5z"/>
	<path class="st0" d="M27.5,6.2c0.2,0.8,0.9,1.3,1.7,1.1c0.8-0.2,1.3-0.9,1.1-1.7l-0.9-4.1c-0.2-0.8-0.9-1.3-1.7-1.1
		c-0.8,0.2-1.3,0.9-1.1,1.7L27.5,6.2z"/>
	<path class="st0" d="M41.7,2.9c-0.7-0.4-1.6-0.3-2,0.4l-2.3,3.5c-0.4,0.7-0.3,1.6,0.4,2c0.3,0.2,0.7,0.3,1.1,0.2
		c0.4-0.1,0.7-0.3,0.9-0.6l2.3-3.5C42.5,4.3,42.3,3.4,41.7,2.9z"/>
	<path class="st0" d="M49.6,14.7c-0.2-0.8-0.9-1.3-1.7-1.1l-4.1,0.8c-0.9,0.2-1.3,0.9-1.1,1.7c0.2,0.8,0.9,1.3,1.7,1.1l4.1-0.8
		c0,0,0,0,0,0C49.2,16.2,49.7,15.5,49.6,14.7z"/>
	<path class="st0" d="M22.5,9.4l-3.3-2.6c-0.6-0.5-1.5-0.4-2,0.3c-0.5,0.6-0.4,1.5,0.3,2l3.3,2.6c0.4,0.3,0.8,0.4,1.2,0.3
		c0.3-0.1,0.6-0.3,0.8-0.5C23.3,10.8,23.2,9.9,22.5,9.4z"/>
</g>
<path class="st2" d="M34.4,26.6c-0.1,0-0.2,0-0.2,0c0-1-0.1-1.9-0.3-2.9c-0.5-2.3-1.6-4.4-3.3-6.1c-1.1-1.1-2.5-2-3.9-2.6
	c-0.9-0.4-1.9-0.7-2.9-0.8C23.1,14,22.4,14,21.7,14c-3.3,0-6.5,1.3-8.8,3.7c-1.7,1.7-2.9,3.8-3.4,6.1c-5.1,0.7-9,5.2-9,10.5
	c0,5.8,4.7,10.6,10.6,10.6h22.8c5,0,9.1-4.1,9.1-9.1C42.9,30.9,39.1,26.9,34.4,26.6z M33.8,41.2H11c-3.8,0-6.9-3.1-6.9-6.9
	c0-3.6,2.8-6.6,6.3-6.9c1.3-0.1,2.3-1.1,2.5-2.3c0.2-1.2,0.6-2.3,1.3-3.3c0.3-0.5,0.7-1.1,1.2-1.5c0.6-0.6,1.2-1,1.9-1.4
	c1.3-0.8,2.8-1.2,4.4-1.2c0.4,0,0.8,0,1.2,0.1c1,0.1,2,0.4,2.9,0.9c0.8,0.4,1.5,1,2.2,1.6c1,1,1.8,2.3,2.2,3.7c0.3,1,0.4,2,0.4,3
	c0,0.1,0,0.1,0,0.2c-0.1,0.7,0.2,1.5,0.6,2c0.3,0.4,0.8,0.7,1.3,0.9c0.2,0.1,0.4,0.1,0.6,0.1c0.1,0,0.2,0,0.3,0h0.5
	c0.5,0,1,0.1,1.4,0.2c2.3,0.6,4,2.7,4,5.3C39.2,38.8,36.9,41.2,33.8,41.2z"/>
</svg>
